<?xml version="1.0" standalone="no"?>
<!DOCTYPE svg PUBLIC "-//W3C//DTD SVG 20010904//EN"
 "http://www.w3.org/TR/2001/REC-SVG-20010904/DTD/svg10.dtd">
<svg version="1.0" xmlns="http://www.w3.org/2000/svg"
 width="512.000000pt" height="512.000000pt" viewBox="0 0 512.000000 512.000000"
 preserveAspectRatio="xMidYMid meet">

<g transform="translate(0.000000,512.000000) scale(0.100000,-0.100000)"
fill="#000000" stroke="none">
<path d="M2389 4955 c-281 -53 -525 -225 -669 -470 -51 -88 -95 -202 -111
-287 -11 -59 -15 -67 -47 -84 -37 -20 -82 -78 -82 -106 0 -10 -15 -27 -32 -37
-75 -44 -112 -77 -154 -133 -153 -208 -89 -511 135 -640 24 -13 45 -35 50 -51
37 -104 147 -154 248 -112 19 8 37 15 39 15 2 0 22 -27 45 -61 86 -127 233
-249 372 -309 50 -22 57 -29 63 -60 13 -68 60 -128 117 -149 46 -18 340 -14
385 4 43 19 78 50 97 86 13 23 21 26 123 37 346 36 533 162 558 376 6 48 11
58 41 78 18 13 44 44 57 70 17 35 41 59 87 91 185 125 250 353 157 549 -40 84
-109 160 -180 198 -34 17 -48 32 -52 52 -6 31 -68 104 -97 113 -10 4 -19 14
-19 24 0 37 -43 179 -75 249 -125 270 -360 466 -651 543 -104 27 -300 34 -405
14z m301 -116 c165 -26 324 -105 447 -223 127 -120 211 -258 249 -411 l17 -69
-24 -15 c-13 -9 -37 -29 -52 -45 l-29 -30 -25 35 c-69 90 -189 187 -310 248
-201 101 -477 119 -691 47 -162 -55 -321 -164 -415 -283 l-38 -48 -50 48 -51
49 17 66 c35 141 118 283 226 389 76 74 114 103 194 148 155 87 358 123 535
94z m95 -569 c201 -63 375 -202 465 -371 l30 -57 0 -331 c0 -330 0 -332 -24
-379 -57 -113 -156 -218 -278 -296 -71 -45 -155 -79 -163 -66 -4 6 -24 19 -45
30 -35 18 -59 20 -216 20 -171 0 -178 -1 -225 -26 -47 -26 -49 -26 -89 -10
-144 58 -304 205 -376 348 -24 47 -24 49 -24 379 l0 331 30 57 c102 192 311
342 541 391 79 16 295 5 374 -20z m-1089 -271 c18 -20 19 -44 22 -403 1 -209
0 -391 -3 -403 -13 -54 -80 -73 -109 -31 -14 19 -16 76 -16 420 0 385 1 399
20 418 26 26 62 25 86 -1z m1810 0 c18 -20 19 -44 22 -393 2 -204 0 -385 -3
-403 -8 -42 -29 -63 -65 -63 -60 0 -60 3 -60 442 0 385 1 399 20 418 26 26 62
25 86 -1z m-2038 -551 l-3 -133 -46 47 c-65 64 -92 139 -87 233 6 87 32 148
89 206 l44 44 3 -132 c1 -73 1 -193 0 -265z m2257 324 c62 -84 80 -188 50
-289 -16 -53 -72 -136 -105 -153 -20 -11 -20 -6 -20 250 0 259 0 261 20 250
11 -6 36 -32 55 -58z m-339 -734 c24 -11 26 -15 20 -58 -17 -124 -138 -215
-326 -245 l-45 -7 50 33 c68 46 172 151 223 227 24 34 45 62 47 62 2 0 16 -5
31 -12z m-648 -372 c13 -25 12 -31 -5 -55 -20 -26 -21 -26 -175 -29 -143 -2
-156 -1 -172 17 -21 24 -24 64 -6 86 11 13 40 15 179 13 l166 -3 13 -29z"/>
<path d="M1975 2395 c-564 -88 -1045 -493 -1224 -1030 -70 -210 -74 -245 -78
-732 -5 -437 -4 -442 16 -462 l21 -21 1850 0 1850 0 21 21 c20 20 21 25 16
462 -4 410 -6 449 -26 542 -67 304 -194 545 -401 759 -211 218 -444 358 -716
426 -163 42 -270 55 -298 37 -12 -8 -115 -144 -230 -301 -114 -157 -211 -286
-216 -286 -5 0 -102 129 -216 286 -114 157 -217 292 -228 300 -24 16 -34 16
-141 -1z m300 -407 c259 -359 250 -348 285 -348 35 0 26 -11 285 348 241 333
207 308 365 273 173 -39 334 -107 486 -207 109 -72 308 -267 382 -376 104
-153 182 -335 225 -523 18 -80 20 -135 24 -488 l5 -397 -256 0 -256 0 0 394 0
395 -22 15 c-31 22 -45 20 -73 -9 l-25 -24 0 -386 0 -385 -1140 0 -1140 0 0
385 0 386 -25 24 c-28 29 -42 31 -73 9 l-22 -15 0 -395 0 -394 -256 0 -256 0
5 398 c4 352 6 407 24 487 65 289 186 509 392 716 206 205 425 328 696 389 44
10 98 18 120 19 l40 0 210 -291z"/>
<path d="M2872 1514 c-21 -14 -22 -22 -22 -163 0 -131 2 -150 18 -164 17 -15
56 -17 349 -17 307 0 331 1 346 18 14 15 17 42 17 160 0 129 -2 144 -20 162
-19 19 -33 20 -343 20 -276 0 -326 -2 -345 -16z m588 -164 l0 -60 -245 0 -245
0 0 60 0 60 245 0 245 0 0 -60z"/>
</g>
</svg>
