<?xml version="1.0" standalone="no"?>
<!DOCTYPE svg PUBLIC "-//W3C//DTD SVG 20010904//EN"
 "http://www.w3.org/TR/2001/REC-SVG-20010904/DTD/svg10.dtd">
<svg version="1.0" xmlns="http://www.w3.org/2000/svg"
 width="100.000000pt" height="100.000000pt" viewBox="0 0 100.000000 100.000000"
 preserveAspectRatio="xMidYMid meet">

<g transform="translate(0.000000,100.000000) scale(0.100000,-0.100000)"
fill="#000000" stroke="none">
<path d="M552 988 c-20 -20 -14 -43 23 -78 l35 -34 -36 -37 c-41 -42 -38 -59
11 -59 29 0 34 -4 40 -30 21 -97 142 -139 220 -78 43 33 55 76 55 187 l0 100
-32 6 c-39 6 -277 35 -293 35 -6 0 -16 -5 -23 -12z m196 -49 c82 -8 112 -15
112 -25 0 -11 -23 -14 -108 -14 l-108 0 -30 31 -29 32 25 -6 c14 -3 76 -11
138 -18z m112 -99 c0 -19 -7 -20 -127 -20 -125 0 -126 0 -108 20 16 18 31 20
127 20 101 0 108 -1 108 -20z m0 -70 c0 -41 -54 -90 -100 -90 -46 0 -100 49
-100 90 0 6 43 10 100 10 57 0 100 -4 100 -10z"/>
<path d="M653 601 c-17 -11 -106 -119 -199 -240 l-167 -221 -84 0 -83 0 0 180
0 180 -40 0 c-27 0 -47 -7 -60 -20 -18 -18 -20 -33 -20 -180 0 -147 2 -162 20
-180 11 -11 29 -20 40 -20 16 0 20 -7 20 -30 0 -17 9 -39 20 -50 19 -19 33
-20 200 -20 167 0 181 1 200 20 28 28 29 117 1 122 -17 3 -14 11 27 66 l47 63
5 -133 5 -133 205 0 205 0 3 283 2 283 -24 24 c-24 24 -30 25 -158 25 -114 0
-138 -3 -165 -19z m150 -104 c-37 -45 -93 -112 -123 -149 l-55 -67 -3 34 c-5
59 -31 44 -116 -70 l-78 -105 -45 0 -45 0 24 33 c212 281 294 384 311 394 13
7 60 12 110 13 l88 0 -68 -83z m145 70 c8 -9 -30 -61 -156 -210 -144 -171
-167 -194 -170 -172 -3 20 28 63 149 210 83 102 155 185 159 185 4 0 12 -6 18
-13z m9 -444 c-2 -2 -73 -2 -157 -1 l-152 3 153 182 154 181 3 -180 c1 -100 1
-183 -1 -185z m-877 176 c0 -147 -1 -160 -17 -157 -16 3 -18 19 -21 148 -3
155 -1 170 23 170 13 0 15 -23 15 -161z m398 -226 l-3 -28 -175 0 -175 0 -3
28 -3 27 181 0 181 0 -3 -27z m482 -13 c0 -19 -7 -20 -170 -20 -163 0 -170 1
-170 20 0 19 7 20 170 20 163 0 170 -1 170 -20z"/>
</g>
</svg>
